# xmcd
#
# Track frame offsets: 
#        150
#        20190
#        38412
#        57422
#        97512
#        128505
#        149214
#        170645
#        197815
#        217466
#        237205
#        273078
#        293986
#        310582
#
# Disc length: 4576 seconds
#
# Revision: 0
# Processed by: cddbd v1.5.2PL0 Copyright (c) Steve Scherf et al.
# Submitted via: ExactAudioCopy v1.3
#
DISCID=d011de0e
DTITLE=Adrianna Marie - Kingdom Of Swing
DYEAR=2017
DGENRE=Blues
TTITLE0=Kingdom of Swing
TTITLE1=Better Beware
TTITLE2=Sidecar Mama
TTITLE3=Mood Indigo
TTITLE4=3 AM Blues
TTITLE5=Gimmie A Roomful
TTITLE6=Memphis Boogie
TTITLE7=Drive Me Daddy
TTITLE8=Baby I Got You
TTITLE9=Jump With You Baby
TTITLE10=The Blues Are Brewin'
TTITLE11=One Sweet Letter
TTITLE12=T-Bone Boogie
TTITLE13=Blues After Hours
EXTD=
EXTT0=
EXTT1=
EXTT2=
EXTT3=
EXTT4=
EXTT5=
EXTT6=
EXTT7=
EXTT8=
EXTT9=
EXTT10=
EXTT11=
EXTT12=
EXTT13=
PLAYORDER=
